<svg xmlns:xlink="http://www.w3.org/1999/xlink" width="40" height="40" viewBox="0 0 40 40" fill="none" xmlns="http://www.w3.org/2000/svg">
<path d="M31.9133 4.95183C31.315 3.9535 30.22 3.3335 29.0566 3.3335H10.9433C9.77998 3.3335 8.68498 3.9535 8.08665 4.95183L3.57165 12.4752C3.41498 12.7352 3.33331 13.0302 3.33331 13.3335C3.33331 15.0102 3.97665 16.5235 4.99998 17.6968V31.6668C4.99998 33.5052 6.49498 35.0002 8.33331 35.0002H15H25H31.6666C33.505 35.0002 35 33.5052 35 31.6668V17.6968C36.0233 16.5235 36.6666 15.0102 36.6666 13.3335C36.6666 13.0302 36.585 12.7352 36.4283 12.4752L31.9133 4.95183ZM33.3066 13.7518C33.1 15.3918 31.6966 16.6668 30 16.6668C28.1616 16.6668 26.6666 15.1718 26.6666 13.3335C26.6666 13.2202 26.625 13.1202 26.6016 13.0135L26.635 13.0068L25.3666 6.66683H29.0566L33.3066 13.7518ZM18.0316 6.66683H21.9666L23.3216 13.4418C23.2633 15.2285 21.8 16.6668 20 16.6668C18.2 16.6668 16.7366 15.2285 16.6783 13.4418L18.0316 6.66683ZM10.9433 6.66683H14.6333L13.3666 13.0068L13.4 13.0135C13.375 13.1202 13.3333 13.2202 13.3333 13.3335C13.3333 15.1718 11.8383 16.6668 9.99998 16.6668C8.30331 16.6668 6.89998 15.3918 6.69331 13.7518L10.9433 6.66683ZM16.6666 31.6668V26.6668H23.3333V31.6668H16.6666ZM26.6666 31.6668V26.6668C26.6666 24.8285 25.1716 23.3335 23.3333 23.3335H16.6666C14.8283 23.3335 13.3333 24.8285 13.3333 26.6668V31.6668H8.33331V19.7635C8.86831 19.9018 9.41998 20.0002 9.99998 20.0002C11.9883 20.0002 13.7783 19.1252 15 17.7385C16.2216 19.1252 18.0116 20.0002 20 20.0002C21.9883 20.0002 23.7783 19.1252 25 17.7385C26.2216 19.1252 28.0116 20.0002 30 20.0002C30.58 20.0002 31.1316 19.9018 31.6666 19.7635V31.6668H26.6666Z" fill="#36499B"/>
</svg>